<svg width="288" height="46" viewBox="0 0 288 46" fill="none" xmlns="http://www.w3.org/2000/svg">
<path d="M34.7601 17.452V20.044C34.7601 24.844 33.2241 28.732 30.1521 31.708C27.0801 34.684 23.1121 36.172 18.2481 36.172C13.0641 36.172 8.76006 34.492 5.33606 31.132C1.94406 27.74 0.248062 23.612 0.248062 18.748C0.248062 13.852 1.92806 9.708 5.28806 6.316C8.68006 2.924 12.8721 1.228 17.8641 1.228C21.0001 1.228 23.8641 1.948 26.4561 3.388C29.0481 4.796 31.0641 6.684 32.5041 9.052L26.8401 12.316C26.0401 10.94 24.8241 9.82 23.1921 8.956C21.5921 8.092 19.8001 7.66 17.8161 7.66C14.6161 7.66 11.9761 8.716 9.89606 10.828C7.84806 12.908 6.82406 15.548 6.82406 18.748C6.82406 21.916 7.86406 24.54 9.94406 26.62C12.0561 28.668 14.8401 29.692 18.2961 29.692C20.8561 29.692 22.9681 29.132 24.6321 28.012C26.3281 26.86 27.4801 25.292 28.0881 23.308H17.9121V17.452H34.7601ZM55.2579 11.5H61.4499V35.5H55.2579V32.812C53.7539 35.052 51.3699 36.172 48.1059 36.172C45.4819 36.172 43.3059 35.292 41.5779 33.532C39.8819 31.772 39.0339 29.34 39.0339 26.236V11.5H45.2259V25.468C45.2259 27.068 45.6579 28.3 46.5219 29.164C47.3859 29.996 48.5379 30.412 49.9779 30.412C51.5779 30.412 52.8579 29.916 53.8179 28.924C54.7779 27.932 55.2579 26.444 55.2579 24.46V11.5ZM85.3611 11.5H91.5531V35.5H85.3611V32.668C83.5051 35.004 80.8971 36.172 77.5371 36.172C74.3371 36.172 71.5851 34.956 69.2811 32.524C67.0091 30.06 65.8731 27.052 65.8731 23.5C65.8731 19.948 67.0091 16.956 69.2811 14.524C71.5851 12.06 74.3371 10.828 77.5371 10.828C80.8971 10.828 83.5051 11.996 85.3611 14.332V11.5ZM73.9371 28.396C75.1851 29.644 76.7691 30.268 78.6891 30.268C80.6091 30.268 82.1931 29.644 83.4411 28.396C84.7211 27.116 85.3611 25.484 85.3611 23.5C85.3611 21.516 84.7211 19.9 83.4411 18.652C82.1931 17.372 80.6091 16.732 78.6891 16.732C76.7691 16.732 75.1851 17.372 73.9371 18.652C72.6891 19.9 72.0651 21.516 72.0651 23.5C72.0651 25.484 72.6891 27.116 73.9371 28.396ZM103.36 15.628C103.936 14.092 104.88 12.94 106.192 12.172C107.536 11.404 109.024 11.02 110.656 11.02V17.932C108.768 17.708 107.072 18.092 105.568 19.084C104.096 20.076 103.36 21.724 103.36 24.028V35.5H97.1679V11.5H103.36V15.628ZM131.579 1.9H137.771V35.5H131.579V32.668C129.755 35.004 127.163 36.172 123.803 36.172C120.571 36.172 117.803 34.956 115.499 32.524C113.227 30.06 112.091 27.052 112.091 23.5C112.091 19.948 113.227 16.956 115.499 14.524C117.803 12.06 120.571 10.828 123.803 10.828C127.163 10.828 129.755 11.996 131.579 14.332V1.9ZM120.155 28.396C121.435 29.644 123.035 30.268 124.955 30.268C126.875 30.268 128.459 29.644 129.707 28.396C130.955 27.116 131.579 25.484 131.579 23.5C131.579 21.516 130.955 19.9 129.707 18.652C128.459 17.372 126.875 16.732 124.955 16.732C123.035 16.732 121.435 17.372 120.155 18.652C118.907 19.9 118.283 21.516 118.283 23.5C118.283 25.484 118.907 27.116 120.155 28.396ZM146.506 8.62C145.482 8.62 144.586 8.252 143.818 7.516C143.082 6.748 142.714 5.852 142.714 4.828C142.714 3.804 143.082 2.908 143.818 2.14C144.586 1.372 145.482 0.987998 146.506 0.987998C147.562 0.987998 148.458 1.372 149.194 2.14C149.962 2.908 150.346 3.804 150.346 4.828C150.346 5.852 149.962 6.748 149.194 7.516C148.458 8.252 147.562 8.62 146.506 8.62ZM143.434 35.5V11.5H149.626V35.5H143.434ZM173.533 11.5H179.725V35.5H173.533V32.668C171.677 35.004 169.069 36.172 165.709 36.172C162.509 36.172 159.757 34.956 157.453 32.524C155.181 30.06 154.045 27.052 154.045 23.5C154.045 19.948 155.181 16.956 157.453 14.524C159.757 12.06 162.509 10.828 165.709 10.828C169.069 10.828 171.677 11.996 173.533 14.332V11.5ZM162.109 28.396C163.357 29.644 164.941 30.268 166.861 30.268C168.781 30.268 170.365 29.644 171.613 28.396C172.893 27.116 173.533 25.484 173.533 23.5C173.533 21.516 172.893 19.9 171.613 18.652C170.365 17.372 168.781 16.732 166.861 16.732C164.941 16.732 163.357 17.372 162.109 18.652C160.861 19.9 160.237 21.516 160.237 23.5C160.237 25.484 160.861 27.116 162.109 28.396ZM198.684 10.828C201.308 10.828 203.468 11.708 205.164 13.468C206.892 15.228 207.756 17.66 207.756 20.764V35.5H201.564V21.532C201.564 19.932 201.132 18.716 200.268 17.884C199.404 17.02 198.252 16.588 196.812 16.588C195.212 16.588 193.932 17.084 192.972 18.076C192.012 19.068 191.532 20.556 191.532 22.54V35.5H185.34V11.5H191.532V14.188C193.036 11.948 195.42 10.828 198.684 10.828Z" fill="#44101D"/>
<path d="M218.275 26.044C219.107 29.052 221.363 30.556 225.043 30.556C227.411 30.556 229.203 29.756 230.419 28.156L235.411 31.036C233.043 34.46 229.555 36.172 224.947 36.172C220.979 36.172 217.795 34.972 215.395 32.572C212.995 30.172 211.795 27.148 211.795 23.5C211.795 19.884 212.979 16.876 215.347 14.476C217.715 12.044 220.755 10.828 224.467 10.828C227.987 10.828 230.883 12.044 233.155 14.476C235.459 16.908 236.611 19.916 236.611 23.5C236.611 24.3 236.531 25.148 236.371 26.044H218.275ZM218.179 21.244H230.419C230.067 19.612 229.331 18.396 228.211 17.596C227.123 16.796 225.875 16.396 224.467 16.396C222.803 16.396 221.427 16.828 220.339 17.692C219.251 18.524 218.531 19.708 218.179 21.244ZM255.644 11.5H262.268L253.532 35.5C252.284 38.956 250.62 41.452 248.54 42.988C246.492 44.556 243.932 45.26 240.86 45.1V39.34C242.524 39.372 243.836 39.02 244.796 38.284C245.788 37.548 246.572 36.364 247.148 34.732L237.308 11.5H244.076L250.316 27.628L255.644 11.5ZM269.509 26.044C270.341 29.052 272.597 30.556 276.277 30.556C278.645 30.556 280.437 29.756 281.653 28.156L286.645 31.036C284.277 34.46 280.789 36.172 276.181 36.172C272.213 36.172 269.029 34.972 266.629 32.572C264.229 30.172 263.029 27.148 263.029 23.5C263.029 19.884 264.213 16.876 266.581 14.476C268.949 12.044 271.989 10.828 275.701 10.828C279.221 10.828 282.117 12.044 284.389 14.476C286.693 16.908 287.845 19.916 287.845 23.5C287.845 24.3 287.765 25.148 287.605 26.044H269.509ZM269.413 21.244H281.653C281.301 19.612 280.565 18.396 279.445 17.596C278.357 16.796 277.109 16.396 275.701 16.396C274.037 16.396 272.661 16.828 271.573 17.692C270.485 18.524 269.765 19.708 269.413 21.244Z" fill="#ED1515"/>
</svg>
