<svg width="30" height="30" viewBox="0 0 30 30" fill="none" xmlns="http://www.w3.org/2000/svg">
<g id="fi_13448960">
<g id="Group">
<g id="Group_2">
<g id="Group_3">
<g id="Group_4">
<path id="Vector" d="M1.22397 10.2588C5.04893 11.9102 7.22053 15.2542 8.07106 19.9507C3.4321 17.6575 1.03287 14.4733 1.22397 10.2588Z" fill="#77E244"/>
</g>
<g id="Group_5">
<path id="Vector_2" d="M8.07168 19.9498C3.43155 17.66 1.03343 14.4752 1.22377 10.2561C1.44056 10.3501 1.6545 10.4488 1.86274 10.5568C2.33517 13.5227 4.28103 15.9024 7.5469 17.7488C7.75913 18.4457 7.92908 19.1806 8.07168 19.9498Z" fill="#62D333"/>
</g>
</g>
</g>
<g id="Group_6">
<g id="Group_7">
<g id="Group_8">
<path id="Vector_3" d="M26.0795 3.52344C22.4075 4.75261 20.1338 7.67909 18.9774 11.9618C23.4537 10.2022 25.9257 7.44163 26.0795 3.52344Z" fill="#77E244"/>
</g>
<g id="Group_9">
<path id="Vector_4" d="M18.9769 11.961C23.454 10.2046 25.925 7.44335 26.0799 3.521C25.8718 3.59107 25.6659 3.66568 25.4646 3.74929C24.7942 6.45906 22.8053 8.51016 19.6357 9.96377C19.3845 10.5926 19.1694 11.2598 18.9769 11.961Z" fill="#62D333"/>
</g>
</g>
<g id="Group_10">
<g id="Group_11">
<path id="Vector_5" d="M20.0139 2.45728C17.8699 5.00367 17.5121 8.16928 18.5815 11.8297C21.0781 8.53394 21.6557 5.40128 20.0139 2.45728Z" fill="#77E244"/>
</g>
<g id="Group_12">
<path id="Vector_6" d="M18.5807 11.8293C21.0793 8.5356 21.6559 5.40285 20.013 2.45532C19.8917 2.59996 19.774 2.74691 19.6637 2.89842C20.3853 5.18701 19.8445 7.58276 18.1697 10.0688C18.2669 10.6427 18.4079 11.2286 18.5807 11.8293Z" fill="#62D333"/>
</g>
</g>
</g>
<g id="Group_13">
<g id="Group_14">
<g id="Group_15">
<g id="Group_16">
<path id="Vector_7" d="M21.5025 17.405C21.5025 22.091 17.7035 25.89 13.0175 25.89C8.33152 25.89 4.53247 22.0909 4.53247 17.405C4.53247 12.7189 8.33152 1.35767 13.0175 1.35767C17.7035 1.35767 21.5025 12.7189 21.5025 17.405Z" fill="#C48A57"/>
</g>
<g id="Group_17">
<path id="Vector_8" d="M21.501 17.4032C21.501 21.7047 18.3069 25.2561 14.1642 25.812C14.1157 25.7414 14.076 25.6708 14.0319 25.6002C12.8892 23.6635 12.5716 21.3958 13.1318 19.2164C13.7848 16.6884 16.4451 11.8002 19.573 8.9502C20.7774 12.0384 21.501 15.3561 21.501 17.4032Z" fill="#B77748"/>
</g>
<g id="Group_18">
<path id="Vector_9" d="M21.5025 17.405C21.5025 22.091 17.7034 25.89 13.0175 25.89C10.9087 25.89 8.98418 25.1285 7.50305 23.8566C8.19755 24.0407 8.92555 24.1328 9.6703 24.1328C14.3563 24.1328 18.1553 20.3337 18.1553 15.6477C18.1553 12.1081 15.988 4.7444 12.9003 1.36374C12.9422 1.35547 12.9756 1.35547 13.0175 1.35547C17.7034 1.35547 21.5025 12.7189 21.5025 17.405Z" fill="#B77748"/>
</g>
</g>
<g id="Group_19">
<g id="Group_20">
<path id="Vector_10" d="M14.1033 4.42871C14.5631 5.18429 14.7075 6.09562 14.7962 6.9567C14.8835 7.82833 14.8848 8.69604 14.8907 9.55728L14.8732 12.1295C14.8775 12.985 14.8977 13.836 14.9751 14.706C14.6291 13.9002 14.4591 13.027 14.3577 12.1609C14.253 11.2922 14.2337 10.4206 14.2294 9.55598C14.2367 8.69092 14.2632 7.83156 14.2822 6.97775C14.2878 6.12298 14.3025 5.27859 14.1033 4.42871Z" fill="#AA6535"/>
</g>
<g id="Group_21">
<path id="Vector_11" d="M17.0228 8.09912C17.6025 9.07696 18.0976 10.1011 18.5166 11.1603C18.9391 12.2181 19.2712 13.317 19.4933 14.4449C19.703 15.5735 19.7995 16.7354 19.6906 17.8866C19.5884 19.0349 19.286 20.1714 18.7465 21.1744C19.0275 20.0723 19.1702 18.9661 19.1749 17.861C19.1759 16.7564 19.0567 15.6557 18.8436 14.5687C18.4341 12.387 17.689 10.2696 17.0228 8.09912Z" fill="#AA6535"/>
</g>
<g id="Group_22">
<path id="Vector_12" d="M6.64805 12.8347C6.73185 13.7309 6.77752 14.617 6.84974 15.4954C6.92626 16.3731 7.01372 17.2439 7.17022 18.0998C7.3145 18.9576 7.52749 19.7994 7.80662 20.6233C8.08925 21.4471 8.45422 22.2441 8.8772 23.0385C8.23261 22.409 7.71545 21.6436 7.32856 20.8185C6.93531 19.9941 6.6809 19.1084 6.5188 18.2141C6.36839 17.3168 6.30699 16.4098 6.33553 15.5092C6.36009 14.6087 6.45849 13.7145 6.64805 12.8347Z" fill="#AA6535"/>
</g>
<g id="Group_23">
<path id="Vector_13" d="M9.79128 8.09912C9.49837 10.7378 9.15397 13.3553 9.34951 15.9492C9.43573 17.2436 9.67507 18.5224 10.0756 19.7559C10.4827 20.9872 11.0491 22.1737 11.7559 23.3005C10.8456 22.3323 10.0977 21.1878 9.591 19.9345C9.07206 18.6851 8.79072 17.3419 8.68996 15.9977C8.59862 14.651 8.67305 13.3028 8.87479 11.9826C9.06791 10.6603 9.39093 9.3661 9.79128 8.09912Z" fill="#AA6535"/>
</g>
<g id="Group_24">
<path id="Vector_14" d="M17.0228 14.2859C17.3472 14.6579 17.5392 15.149 17.6052 15.6489C17.6771 16.1508 17.6307 16.6522 17.5554 17.1248C17.4779 17.5994 17.3715 18.0516 17.2723 18.5024C17.1765 18.9547 17.0961 19.4047 17.0228 19.8925C16.8218 19.441 16.7553 18.9378 16.7587 18.4492C16.7568 17.9578 16.8282 17.479 16.9024 17.0192C16.9782 16.5583 17.0554 16.1154 17.0912 15.6694C17.1221 15.223 17.0968 14.7741 17.0228 14.2859Z" fill="#AA6535"/>
</g>
<g id="Group_25">
<path id="Vector_15" d="M11.4962 10.5703C11.9231 11.6895 12.1816 12.8718 12.3586 14.0548C12.5434 15.2382 12.6313 16.4273 12.7918 17.5877C12.9418 18.7478 13.1732 19.8871 13.6614 20.9224C14.1408 21.9653 14.9444 22.8373 15.8783 23.585C14.8015 23.0755 13.8156 22.2515 13.206 21.166C12.5771 20.091 12.3012 18.8649 12.1363 17.6759C11.9846 16.4782 11.9258 15.2911 11.8473 14.1108C11.7678 12.9298 11.6573 11.7573 11.4962 10.5703Z" fill="#AA6535"/>
</g>
</g>
<g id="Group_26" opacity="0.3">
<path id="Vector_16" d="M11.4886 8.78863C10.3281 10.5608 9.25825 12.0976 8.54414 11.5421C7.82998 10.9866 7.87366 8.74393 9.03417 6.97172C10.1983 5.19393 12.035 4.56519 12.7491 5.12069C13.4633 5.67616 12.6528 7.01084 11.4886 8.78863Z" fill="white"/>
</g>
</g>
<g id="Group_27">
<path id="Vector_17" d="M21.763 16.2546C22.339 16.2546 22.8019 16.7471 22.7512 17.3209C22.2673 22.7989 18.0939 27.0799 13.0175 27.0799C7.94107 27.0799 3.76766 22.7989 3.28371 17.3209C3.23301 16.7471 3.69592 16.2546 4.27198 16.2546L21.763 16.2546Z" fill="#FFC776"/>
</g>
<g id="Group_28">
<path id="Vector_18" d="M22.7518 17.3217C22.2678 22.7994 18.0941 27.0816 13.0166 27.0816C10.7742 27.0816 8.70956 26.2469 7.05994 24.8442C8.12677 25.2887 9.27765 25.5307 10.4828 25.5307C15.4072 25.5307 19.487 21.5003 20.1686 16.2549H21.764C22.3369 16.2549 22.8012 16.7488 22.7518 17.3217Z" fill="#F4B25B"/>
</g>
<g id="Group_29" opacity="0.3">
<path id="Vector_19" d="M10.4321 21.3732C11.8782 22.9048 13.1176 24.2944 12.4154 24.8568C11.7133 25.4193 9.55426 24.8593 8.10811 23.3277C6.6574 21.7912 6.47331 19.8697 7.17547 19.3072C7.87759 18.7448 8.98138 19.8368 10.4321 21.3732Z" fill="white"/>
</g>
<g id="Group_30">
<g id="Group_31">
<path id="Vector_20" d="M7.95248 23.6994C7.87881 23.6994 7.80449 23.6749 7.74309 23.6245L7.55956 23.4741C7.41803 23.3582 7.39734 23.1497 7.51324 23.0084C7.6287 22.8675 7.83744 22.8459 7.97876 22.9623L8.1623 23.1126C8.30383 23.2285 8.32451 23.4371 8.20861 23.5784C8.14334 23.6581 8.04834 23.6994 7.95248 23.6994Z" fill="#E29A44"/>
</g>
<g id="Group_32">
<path id="Vector_21" d="M7.25642 21.7589C7.18275 21.7589 7.10886 21.7343 7.04725 21.6843L6.86372 21.5344C6.72219 21.4185 6.70129 21.2104 6.81675 21.0687C6.93265 20.9269 7.14074 20.9067 7.28249 21.0217L7.46603 21.1717C7.60756 21.2875 7.62845 21.4956 7.51299 21.6374C7.4475 21.7175 7.35229 21.7589 7.25642 21.7589Z" fill="#E29A44"/>
</g>
<g id="Group_33">
<path id="Vector_22" d="M9.07028 21.9605C8.99661 21.9605 8.92229 21.9359 8.86089 21.8855L8.67735 21.7352C8.53582 21.6193 8.51514 21.4107 8.63104 21.2694C8.7465 21.1285 8.95524 21.1074 9.09656 21.2233L9.2801 21.3737C9.42163 21.4896 9.44231 21.6981 9.32641 21.8394C9.26114 21.9191 9.16614 21.9605 9.07028 21.9605Z" fill="#E29A44"/>
</g>
</g>
</g>
<g id="Group_34">
<g id="Group_35">
<g id="Group_36">
<path id="Vector_23" d="M28.3763 23.1515C27.3663 27.066 23.374 29.4207 19.4595 28.4108C15.5451 27.4008 13.1903 23.4085 14.2003 19.494C15.2103 15.5795 20.8325 6.90766 24.7469 7.91762C28.6614 8.92758 29.3863 19.237 28.3763 23.1515Z" fill="#C48A57"/>
</g>
<g id="Group_37">
<path id="Vector_24" d="M28.3764 23.1516C27.3664 27.066 23.374 29.4208 19.4596 28.4108C17.6981 27.9563 16.2545 26.9054 15.2914 25.5237C15.8319 25.8271 16.4201 26.061 17.0423 26.2215C20.9567 27.2315 24.9491 24.8767 25.9591 20.9622C26.7219 18.0054 26.4985 11.387 24.6478 7.89746C24.6846 7.89957 24.7125 7.90677 24.7475 7.9158C28.6619 8.92576 29.3863 19.237 28.3764 23.1516Z" fill="#B77748"/>
</g>
</g>
<g id="Group_38">
<g id="Group_39">
<path id="Vector_25" d="M24.992 10.717C25.2323 11.4455 25.1658 12.2451 25.0605 12.9856C24.9523 13.7355 24.7681 14.4617 24.5884 15.1823L24.0102 17.3226C23.8232 18.0358 23.6471 18.747 23.5052 19.4901C23.3709 18.7421 23.4075 17.972 23.5033 17.2243C23.5962 16.4732 23.7663 15.7395 23.9483 15.0158C24.1418 14.2948 24.3509 13.5837 24.5575 12.8775C24.7526 12.1667 24.9563 11.4717 24.992 10.717Z" fill="#AA6535"/>
</g>
<g id="Group_40">
<path id="Vector_26" d="M26.6398 14.4124C26.9318 15.3511 27.1345 16.3128 27.2631 17.2886C27.3953 18.264 27.4379 19.2558 27.3811 20.2487C27.3121 21.2394 27.1398 22.2345 26.7927 23.1739C26.4525 24.1123 25.9439 24.9958 25.2616 25.7063C25.7184 24.8352 26.0648 23.9412 26.2997 23.0202C26.5307 22.099 26.6658 21.1575 26.7211 20.2062C26.8505 18.3012 26.6932 16.3749 26.6398 14.4124Z" fill="#AA6535"/>
</g>
<g id="Group_41">
<path id="Vector_27" d="M16.9526 16.1321C16.8473 16.9046 16.7042 17.6566 16.5821 18.4061C16.4641 19.156 16.3519 19.9004 16.2993 20.6464C16.2344 21.3914 16.2289 22.1368 16.2769 22.8832C16.3285 23.6305 16.4509 24.3744 16.6155 25.1363C16.1952 24.4787 15.9174 23.7273 15.7652 22.9529C15.6068 22.1774 15.5832 21.3791 15.64 20.5944C15.7088 19.8098 15.8554 19.0369 16.0807 18.291C16.3021 17.5443 16.5867 16.8204 16.9526 16.1321Z" fill="#AA6535"/>
</g>
<g id="Group_42">
<path id="Vector_28" d="M20.5989 12.854C19.818 15.0116 18.9752 17.1221 18.5827 19.3245C18.3755 20.4207 18.2982 21.5356 18.3593 22.6493C18.4228 23.764 18.641 24.8723 18.9637 25.9759C18.3871 24.981 18.0098 23.8586 17.8454 22.701C17.6737 21.5425 17.7264 20.3548 17.9318 19.2067C18.1473 18.0586 18.5028 16.9462 18.9633 15.8879C19.4204 14.8278 19.9675 13.8143 20.5989 12.854Z" fill="#AA6535"/>
</g>
<g id="Group_43">
<path id="Vector_29" d="M25.3064 19.5803C25.5159 19.9576 25.5808 20.4149 25.5337 20.8519C25.4918 21.2922 25.346 21.7055 25.1811 22.0848C25.0136 22.4655 24.8253 22.8179 24.6394 23.1688C24.4563 23.5219 24.2833 23.8745 24.0981 24.2639C24.0087 23.8411 24.0526 23.4003 24.1553 22.9888C24.2535 22.5736 24.4145 22.1866 24.5752 21.8194C24.7376 21.4516 24.8986 21.1026 25.0309 20.7433C25.1585 20.3823 25.2444 20.0076 25.3064 19.5803Z" fill="#AA6535"/>
</g>
<g id="Group_44">
<path id="Vector_30" d="M21.4905 15.2854C21.6248 16.3124 21.5955 17.3589 21.4949 18.3871C21.4012 19.4175 21.2202 20.4304 21.1055 21.432C20.9802 22.4313 20.9264 23.4263 21.1024 24.3914C21.2703 25.3608 21.7406 26.2625 22.346 27.1017C21.5428 26.4574 20.8839 25.5567 20.6007 24.5134C20.2983 23.4748 20.3307 22.3847 20.4488 21.3537C20.5813 20.3181 20.7899 19.3144 20.9858 18.3135C21.1804 17.3117 21.3504 16.3117 21.4905 15.2854Z" fill="#AA6535"/>
</g>
</g>
<g id="Group_45" opacity="0.3">
<path id="Vector_31" d="M19.0166 21.2108C18.9108 23.467 18.7606 25.4578 17.8039 25.3345C16.8471 25.2111 15.6724 23.1279 15.7783 20.8716C15.8844 18.6083 17.2306 17.036 18.1874 17.1594C19.1441 17.2827 19.1228 18.9474 19.0166 21.2108Z" fill="white"/>
</g>
</g>
</g>
</g>
</svg>
