<svg width="30" height="36" viewBox="0 0 30 36" fill="none" xmlns="http://www.w3.org/2000/svg">
<path d="M17.4 22.8C17.4 24.1255 16.3255 25.2 15 25.2C13.6745 25.2 12.6 24.1255 12.6 22.8C12.6 21.4745 13.6745 20.4 15 20.4C16.3255 20.4 17.4 21.4745 17.4 22.8Z" fill="#ED1515"/>
<path d="M5.32739 30.1022C3.98178 28.2695 3.18448 26.0924 3.02833 23.8242C2.87219 21.556 3.36362 19.2901 4.4454 17.2903C5.52718 15.2906 7.15479 13.6393 9.1387 12.5288C11.1226 11.4183 13.3812 10.8943 15.6514 11.0177C17.9216 11.1411 20.1101 11.9069 21.9619 13.226C23.8138 14.545 25.2528 16.363 26.1114 18.4682C26.97 20.5734 27.2129 22.8792 26.8118 25.1171C26.4106 27.355 25.382 29.433 23.8457 31.1089L22.4304 29.8115C23.7209 28.4037 24.5849 26.6582 24.9219 24.7784C25.2588 22.8986 25.0548 20.9617 24.3336 19.1933C23.6123 17.4249 22.4036 15.8978 20.848 14.7898C19.2925 13.6818 17.4542 13.0385 15.5472 12.9349C13.6402 12.8312 11.743 13.2714 10.0765 14.2042C8.41002 15.1371 7.04283 16.5241 6.13413 18.2039C5.22544 19.8836 4.81264 21.787 4.9438 23.6923C5.07497 25.5976 5.7447 27.4264 6.87501 28.9658L5.32739 30.1022Z" fill="#44101D"/>
<path fill-rule="evenodd" clip-rule="evenodd" d="M15 27.2C17.43 27.2 19.4 25.23 19.4 22.8C19.4 20.3699 17.43 18.4 15 18.4C12.5699 18.4 10.6 20.3699 10.6 22.8C10.6 25.23 12.5699 27.2 15 27.2ZM15 28.8C18.3137 28.8 21 26.1137 21 22.8C21 19.4863 18.3137 16.8 15 16.8C11.6863 16.8 9 19.4863 9 22.8C9 26.1137 11.6863 28.8 15 28.8Z" fill="#44101D"/>
<path fill-rule="evenodd" clip-rule="evenodd" d="M22.7406 31.9701L17.451 26.6804L18.4804 25.651L23.7942 30.9648C23.4637 31.3207 23.1118 31.6564 22.7406 31.9701Z" fill="#44101D"/>
<path d="M15 0C15 0 10.5657 7.41657 0 7.86123C0 7.86123 0 11.9703 0 14.6499C0 33.7672 15 36 15 36C15 36 30 33.7672 30 14.6499C30 11.9703 30 7.86123 30 7.86123C19.4343 7.41653 15 0 15 0ZM27.7643 14.6499C27.7643 18.6072 27.0722 22.0682 25.7071 24.9371C24.639 27.1818 23.1502 29.0842 21.282 30.5912C19.5961 31.9511 17.897 32.741 16.7686 33.1641C15.9868 33.4573 15.3604 33.6211 15 33.7027C14.6396 33.6211 14.0132 33.4573 13.2314 33.1641C12.103 32.741 10.4039 31.9511 8.71798 30.5912C6.84975 29.0842 5.36092 27.1818 4.29283 24.9371C2.92781 22.0682 2.2357 18.6071 2.2357 14.6499V9.93004C4.11793 9.6842 5.92266 9.21962 7.62289 8.542C9.50373 7.79241 11.2579 6.78304 12.8367 5.54191C13.7023 4.86145 14.4201 4.18722 15 3.57863C15.5798 4.18726 16.2976 4.86145 17.1632 5.54191C18.742 6.78304 20.4962 7.79241 22.377 8.542C24.0773 9.21962 25.882 9.68416 27.7642 9.93004L27.7643 14.6499Z" fill="#44101D"/>
</svg>
